<svg width="19" height="19" viewBox="0 0 19 19" fill="none" xmlns="http://www.w3.org/2000/svg">
<path d="M9.75021 18.8492L10.5899 17.9997C10.7886 17.7986 10.7886 17.4726 10.5899 17.2715L4.01072 10.6155H18.4911C18.7721 10.6155 19 10.385 19 10.1007V8.8993C19 8.61496 18.7721 8.38442 18.4911 8.38442H4.01072L10.5899 1.72841C10.7886 1.52735 10.7886 1.20135 10.5899 1.00025L9.75021 0.150793C9.55148 -0.0502645 9.22924 -0.0502645 9.03046 0.150793L0.149053 9.13592C-0.0496842 9.33698 -0.0496842 9.66298 0.149053 9.86408L9.03046 18.8492C9.2292 19.0503 9.55143 19.0503 9.75021 18.8492Z" fill="#464646"/>
</svg>
