<svg width="16" height="16" viewBox="0 0 16 16" fill="none" xmlns="http://www.w3.org/2000/svg">
<path d="M8 16C12.4183 16 16 12.4183 16 8C16 3.58172 12.4183 0 8 0C3.58172 0 0 3.58172 0 8C0 12.4183 3.58172 16 8 16Z" fill="#30BC2D"/>
<path d="M6.7875 12.15L3.1 8.46245C3.05 8.41245 3.05 8.33745 3.1 8.28745L4.1625 7.22495C4.2125 7.17495 4.2875 7.17495 4.3375 7.22495L6.875 9.76245L11.65 4.98745C11.7 4.93745 11.775 4.93745 11.825 4.98745L12.8875 6.04995C12.9375 6.09995 12.9375 6.17495 12.8875 6.22495L6.9625 12.15C6.9125 12.2 6.8375 12.2 6.7875 12.15Z" fill="white"/>
</svg>
