<svg width="44" height="45" viewBox="0 0 44 45" fill="none" xmlns="http://www.w3.org/2000/svg">
<path d="M28.9224 44.5501C24.5248 44.5501 20.1272 44.713 15.7458 44.5175C6.98322 44.1103 0.207664 36.9928 0.0122156 28.2301C-0.00407185 27.6275 -0.00407185 27.0412 0.0122156 26.4385C0.0122156 25.9173 0.240239 25.6567 0.810298 25.6567C3.17197 25.673 5.53365 25.673 7.89532 25.6567C8.51424 25.6567 8.66083 25.9662 8.6934 26.52C8.75855 27.6764 8.72598 28.8653 9.00286 29.9729C9.89867 33.5235 13.0258 35.9015 16.7068 35.9015C22.5703 35.9015 28.4174 35.8852 34.2809 35.9178C35.0301 35.9178 35.2419 35.7061 35.2256 34.9568C35.1767 32.188 35.2256 29.4354 35.193 26.6665C35.193 25.901 35.4373 25.6079 36.2354 25.6241C38.4342 25.673 40.633 25.6567 42.8318 25.6241C43.5484 25.6079 43.8579 25.8196 43.8579 26.5851C43.8416 32.2531 43.8416 37.9049 43.8579 43.5729C43.8579 44.3221 43.5647 44.5664 42.8481 44.5664C38.2062 44.5501 33.5643 44.5501 28.9386 44.5501C28.9224 44.5664 28.9224 44.5501 28.9224 44.5501Z" fill="#522864"/>
<path d="M0.0937617 9.56478C0.0937617 6.74706 0.0937617 3.92934 0.0937617 1.11162C0.0937617 0.0855089 0.175199 0.00407185 1.2013 0.00407185C9.93135 0.00407185 18.6614 -0.0122156 27.3914 0.0203592C32.294 0.0366466 36.3821 2.00742 39.6233 5.63951C42.8482 9.25531 44.0372 13.5715 43.7929 18.3274C43.7603 18.93 43.4508 19.1092 42.897 19.1092C40.6494 19.0929 38.4017 19.0929 36.1378 19.1092C35.4537 19.1255 35.2583 18.8486 35.2257 18.1971C35.1605 16.9267 35.1768 15.6237 34.8674 14.4184C33.9553 10.9003 30.8444 8.55496 27.196 8.53867C21.3162 8.50609 15.4202 8.53867 9.54045 8.52238C8.8401 8.52238 8.59578 8.71783 8.61207 9.43448C8.64465 12.2522 8.62836 15.0699 8.62836 17.8876C8.62836 19.044 8.56321 19.1092 7.45567 19.1092C5.3383 19.1092 3.22094 19.0929 1.10358 19.1255C0.338073 19.1418 0.0448995 18.8975 0.0611869 18.0994C0.126336 15.2491 0.0937617 12.4151 0.0937617 9.56478Z" fill="#FF6001"/>
<path d="M21.8209 25.8198C20.5179 25.8198 19.215 25.8035 17.912 25.8198C17.2768 25.8361 16.951 25.6243 16.9673 24.9403C16.9836 23.2138 16.951 21.4711 16.9347 19.7446C16.9184 19.0117 17.2116 18.6696 17.9934 18.6859C20.6157 18.7185 23.2542 18.7185 25.8765 18.6859C26.6583 18.6696 26.9189 18.9791 26.9189 19.7446C26.8863 21.4222 26.9189 23.0998 26.9189 24.7774C26.9189 25.6895 26.756 25.8361 25.8114 25.8524C24.4758 25.8524 23.1565 25.8524 21.8209 25.8524C21.8209 25.8361 21.8209 25.8361 21.8209 25.8198Z" fill="#FF6001"/>
</svg>
