<svg width="212" height="60" viewBox="0 0 212 60" fill="none" xmlns="http://www.w3.org/2000/svg">
<path d="M127.378 53.0777C127.378 51.7494 127.357 50.4429 127.378 49.1582C127.4 48.0912 127.074 46.567 127.64 46.0444C128.293 45.4565 129.752 45.7831 130.841 45.7178C131.494 45.696 132.147 45.7613 132.8 45.696C133.715 45.6089 134.042 45.9573 134.02 46.8718C133.976 48.5267 133.998 50.2034 133.998 51.8801C133.998 52.272 133.998 52.664 133.998 53.0995C138.201 53.0995 142.294 53.0995 146.519 53.0995C146.519 51.2268 146.519 49.3542 146.519 47.4815C146.519 45.7178 146.519 45.7178 148.304 45.7178C149.567 45.7178 150.852 45.7613 152.115 45.696C152.942 45.6742 153.204 46.0226 153.204 46.7847C153.182 48.8534 153.204 50.9002 153.204 53.0559C157.363 53.0559 161.435 53.0559 165.681 53.0559C165.681 51.4446 165.681 49.7897 165.681 48.1566C165.703 45.3476 165.419 45.7613 168.12 45.7178C169.208 45.696 170.297 45.7395 171.386 45.7178C172.083 45.696 172.387 45.9791 172.387 46.6759C172.387 49.18 172.496 51.6841 172.344 54.1665C172.126 57.6723 169.578 59.8498 165.92 59.8498C135.239 59.8498 104.558 59.8498 73.8773 59.8498C73.224 59.8498 72.5708 59.828 71.9175 59.8498C71.2207 59.8715 70.9376 59.5884 70.9594 58.8916C70.9812 57.3674 71.0029 55.8431 70.9594 54.3189C70.9158 53.3826 71.3078 53.143 72.1788 53.1648C76.7516 53.1866 81.3243 53.1648 85.8753 53.1648C86.2672 53.1648 86.6592 53.1648 87.0947 53.1648C87.0947 50.8131 87.0947 48.5921 87.0947 46.1968C86.7027 46.1968 86.3326 46.1968 85.9406 46.1968C81.4114 46.1968 76.8822 46.1533 72.3312 46.2186C71.1989 46.2404 70.8723 45.8484 70.9376 44.7814C71.003 43.4749 71.0247 42.1684 70.9376 40.8619C70.8723 39.8167 71.2425 39.4683 72.2877 39.4901C76.708 39.5337 81.1283 39.5119 85.5704 39.5119C86.8769 39.5119 88.1834 39.4683 89.4899 39.5772C92.0594 39.7732 93.8232 41.6676 93.845 44.2371C93.8667 46.9154 93.845 49.5937 93.8667 52.272C93.8667 52.5116 93.8667 52.7729 93.8667 53.0777C105.037 53.0777 116.143 53.0777 127.378 53.0777Z" fill="black"/>
<path d="M38.667 59.915C32.7877 59.915 26.9085 60.1327 21.051 59.8714C9.33604 59.327 0.277632 49.8114 0.0163313 38.0964C-0.00544376 37.2907 -0.00544376 36.5068 0.0163313 35.7011C0.0163313 35.0043 0.321182 34.6559 1.08331 34.6559C4.24069 34.6777 7.39807 34.6777 10.5554 34.6559C11.3829 34.6559 11.5789 35.0697 11.6224 35.81C11.7095 37.356 11.666 38.9456 12.0361 40.4263C13.2338 45.1733 17.4146 48.3524 22.3357 48.3524C30.1747 48.3524 37.992 48.3306 45.831 48.3742C46.8326 48.3742 47.1157 48.0911 47.0939 47.0895C47.0286 43.3877 47.0939 39.7077 47.0504 36.006C47.0504 34.9826 47.377 34.5906 48.444 34.6124C51.3836 34.6777 54.3232 34.6559 57.2629 34.6124C58.221 34.5906 58.6347 34.8737 58.6347 35.8971C58.6129 43.4748 58.6129 51.0308 58.6347 58.6085C58.6347 59.6101 58.2428 59.9367 57.2846 59.9367C51.0788 59.915 44.8729 59.915 38.6888 59.915C38.667 59.9367 38.667 59.915 38.667 59.915Z" fill="#522864"/>
<path d="M0.125216 13.1422C0.125216 9.3751 0.125216 5.60802 0.125216 1.84094C0.125216 0.469116 0.234091 0.360241 1.60592 0.360241C13.2773 0.360241 24.9487 0.338466 36.6202 0.382016C43.1744 0.403791 48.64 3.03857 52.9732 7.8944C57.2847 12.7285 58.8742 18.4988 58.5476 24.8571C58.5041 25.6628 58.0903 25.9023 57.35 25.9023C54.345 25.8806 51.3401 25.8806 48.3133 25.9023C47.3988 25.9241 47.1375 25.5539 47.0939 24.6829C47.0068 22.9845 47.0286 21.2425 46.6149 19.6311C45.3955 14.9277 41.2365 11.7921 36.3589 11.7704C28.4981 11.7268 20.6155 11.7704 12.7547 11.7486C11.8184 11.7486 11.4918 12.0099 11.5136 12.968C11.5571 16.7351 11.5353 20.5021 11.5353 24.2692C11.5353 25.8152 11.4482 25.9023 9.96753 25.9023C7.13677 25.9023 4.30602 25.8806 1.47527 25.9241C0.451842 25.9459 0.0598911 25.6193 0.0816662 24.5523C0.168766 20.7417 0.125216 16.9528 0.125216 13.1422Z" fill="#FF6001"/>
<path d="M176.067 15.9076C175.175 15.9076 174.456 15.8858 173.738 15.9076C173.019 15.9294 172.671 15.6463 172.692 14.8842C172.736 13.7954 172.736 12.7067 172.692 11.6179C172.671 10.8558 172.954 10.5074 173.759 10.5074C176.438 10.5292 179.116 10.5292 181.816 10.5074C182.469 10.5074 182.752 10.7687 182.731 11.4002C182.709 11.7268 182.731 12.0534 182.731 12.38C182.731 25.5539 182.752 38.7496 182.752 51.9235C182.752 52.2719 182.752 52.6421 182.752 53.0558C186.933 53.0558 191.005 53.0558 195.273 53.0558C195.273 51.292 195.273 49.5282 195.273 47.7645C195.273 45.391 195.121 45.6958 197.385 45.674C198.539 45.674 199.715 45.6958 200.869 45.6523C201.61 45.6305 201.958 45.8918 201.958 46.6321C201.936 49.5282 202.045 52.4243 201.914 55.3204C201.784 57.9987 199.802 59.7625 197.102 59.7625C190.57 59.7843 184.037 59.7407 177.526 59.7843C176.438 59.7843 176.089 59.4794 176.089 58.3689C176.111 44.6506 176.067 30.9106 176.046 17.1923C176.067 16.8657 176.067 16.4737 176.067 15.9076Z" fill="black"/>
<path d="M205.072 34.0028C200.978 36.6158 196.71 36.79 192.355 35.3746C188.74 34.1987 186.955 31.4333 186.28 27.8404C185.648 24.4871 185.735 21.1337 186.846 17.8675C188.436 13.1423 192.377 10.2244 197.385 10.072C199.672 9.98491 201.871 10.2898 203.918 11.3132C204.07 11.3785 204.244 11.4003 204.527 11.4656C204.527 8.72196 204.527 6.04363 204.527 3.38708C204.527 0.425677 204.527 0.425677 207.532 0.425677C208.447 0.425677 209.34 0.447452 210.254 0.425677C210.951 0.403902 211.234 0.708753 211.234 1.40555C211.212 2.38543 211.234 3.36531 211.234 4.34518C211.234 14.2528 211.234 24.1822 211.234 34.0899C211.234 35.723 211.234 35.723 209.623 35.723C208.643 35.723 207.663 35.6794 206.683 35.7448C205.747 35.8101 205.224 35.5052 205.246 34.5036C205.268 34.3512 205.159 34.2205 205.072 34.0028ZM204.527 22.9846C204.527 21.7217 204.527 20.4587 204.527 19.1957C204.527 16.9529 204.288 16.6045 202.154 15.8859C201.849 15.7771 201.522 15.69 201.218 15.6246C197.516 14.7754 194.554 16.0819 193.422 19.1957C192.42 21.983 192.312 24.9008 193.204 27.7316C193.487 28.6461 194.271 29.6042 195.099 30.0833C197.581 31.5857 201.718 31.1285 203.896 29.2558C204.222 28.9727 204.484 28.4284 204.506 27.9929C204.571 26.3162 204.527 24.6613 204.527 22.9846Z" fill="black"/>
<path d="M152.855 11.9229C154.815 11.335 156.688 10.5293 158.604 10.268C160.498 10.0285 162.523 10.1156 164.418 10.4857C167.793 11.1172 169.6 13.4471 170.21 16.7352C170.384 17.6497 170.449 18.6078 170.449 19.5441C170.471 24.5089 170.449 29.4736 170.471 34.4165C170.471 35.3528 170.275 35.8101 169.208 35.7448C167.836 35.6577 166.443 35.6577 165.071 35.7448C164.026 35.8101 163.765 35.3528 163.765 34.3947C163.786 29.626 163.786 24.8355 163.765 20.0667C163.765 16.4739 162.676 15.3633 159.083 15.4504C158.125 15.4722 157.123 15.6246 156.209 15.9295C153.16 16.9529 152.877 17.432 152.877 20.6111C152.877 25.2057 152.855 29.8002 152.899 34.4165C152.899 35.3746 152.638 35.7883 151.614 35.7448C150.199 35.6794 148.783 35.6794 147.368 35.7448C146.475 35.7883 146.149 35.4617 146.17 34.5471C146.214 31.8035 146.192 29.0381 146.192 26.2944C146.192 18.1941 146.192 10.072 146.192 1.9717C146.192 0.469224 146.192 0.447448 147.695 0.447448C149.066 0.447448 150.46 0.469223 151.832 0.425673C152.638 0.403898 152.899 0.708749 152.899 1.51442C152.855 4.99843 152.855 8.50421 152.855 11.9229Z" fill="black"/>
<path d="M114.03 20.0666C114.335 17.2794 113.464 16.0382 110.917 15.6898C107.607 15.2325 104.34 15.5591 101.14 16.4955C99.7459 16.9092 99.6153 16.8221 99.6153 15.4067C99.6153 14.4922 99.6371 13.5994 99.6153 12.6848C99.5717 11.9663 99.833 11.5525 100.552 11.313C104.994 9.94118 109.501 9.50568 114.052 10.6162C118.429 11.6832 120.476 14.4704 120.563 19.4133C120.65 24.4434 120.563 29.4734 120.606 34.5034C120.606 35.3962 120.302 35.7446 119.409 35.701C118.472 35.6575 117.514 35.701 116.578 35.701C114.814 35.701 114.814 35.701 114.466 33.9808C114.205 34.1115 113.943 34.2203 113.704 34.3728C110.089 36.3978 106.257 36.7245 102.337 35.6575C98.6572 34.6341 96.6757 31.7815 96.7845 28.058C96.8934 24.2909 99.1145 21.4166 102.838 20.5674C104.449 20.1972 106.126 20.1319 107.803 20.0883C109.828 20.0012 111.896 20.0666 114.03 20.0666ZM114.117 25.0748C111.221 25.0748 108.434 25.0748 105.647 25.0748C105.429 25.0748 105.211 25.1619 105.015 25.2273C103.687 25.641 103.056 26.5773 103.056 28.1233C103.056 29.5823 103.578 30.4533 104.972 30.7799C108.129 31.542 111.091 31.1065 113.617 28.8637C113.878 28.6242 114.074 28.2104 114.096 27.862C114.161 26.9693 114.117 26.0547 114.117 25.0748Z" fill="black"/>
<path d="M76.6209 12.1841C78.7331 11.4873 80.7146 10.6817 82.7832 10.2244C84.9172 9.76712 87.1165 9.94132 89.2286 10.5946C92.4513 11.5962 94.3893 14.1874 94.4764 18.1505C94.6071 23.6814 94.52 29.234 94.5417 34.7648C94.5417 35.5052 94.1933 35.7012 93.5401 35.7012C92.0594 35.6794 90.5569 35.6576 89.0762 35.7229C88.1617 35.7665 87.8786 35.4181 87.8786 34.5253C87.9004 29.6695 87.9004 24.8354 87.8786 19.9796C87.8786 16.4521 86.8987 15.4722 83.3494 15.4069C81.3243 15.3633 79.4952 15.9512 77.8185 17.0618C77.1653 17.4973 76.8822 17.9981 76.8822 18.8473C76.9258 24.0298 76.8822 29.1904 76.9258 34.3729C76.9258 35.4181 76.5991 35.7883 75.5539 35.7447C74.1385 35.6794 72.7232 35.7012 71.3078 35.7447C70.5457 35.7665 70.1973 35.5052 70.1973 34.6777C70.219 27.0129 70.219 19.3264 70.1973 11.6615C70.1973 10.7905 70.5457 10.5292 71.3731 10.551C72.6143 10.5946 73.8337 10.6163 75.0749 10.551C76.0765 10.4857 76.5991 10.7688 76.512 11.8357C76.5338 11.9882 76.6209 12.1624 76.6209 12.1841Z" fill="black"/>
<path d="M132.779 36.4414C130.275 36.0494 127.727 35.6357 125.201 35.222C124.373 35.0913 123.982 34.634 124.047 33.7195C124.134 32.6089 124.069 31.4766 124.069 30.3443C124.09 29.1249 124.221 29.0378 125.419 29.408C128.598 30.4314 131.842 30.8016 135.174 30.3226C136.067 30.1919 136.916 29.9959 137.068 28.8854C137.221 27.8184 136.589 27.2523 135.74 26.9039C134.434 26.3813 133.083 25.9676 131.755 25.4667C130.166 24.857 128.554 24.2909 127.03 23.5505C124.504 22.2876 123.394 20.1101 123.481 17.3447C123.568 14.5792 124.722 12.4453 127.291 11.2694C130.405 9.83227 133.715 9.94115 137.003 10.2242C138.288 10.3331 139.551 10.725 140.835 10.9646C141.554 11.0952 141.881 11.4654 141.837 12.2275C141.793 13.4252 141.837 14.6228 141.815 15.8204C141.793 16.8656 141.598 17.018 140.574 16.6696C137.765 15.7551 134.913 15.472 131.995 15.9511C131.189 16.0817 130.362 16.2341 130.231 17.2576C130.1 18.281 130.797 18.7383 131.646 19.0431C133.519 19.6964 135.413 20.3278 137.286 21.0029C138.135 21.3077 138.985 21.6343 139.79 22.0481C142.904 23.6376 144.015 25.8151 143.71 29.5604C143.47 32.4347 141.706 34.634 138.593 35.4615C136.742 35.9405 134.782 36.1147 132.779 36.4414Z" fill="black"/>
<path d="M29.173 34.8736C27.431 34.8736 25.689 34.8519 23.947 34.8736C23.0978 34.8954 22.6623 34.6123 22.6841 33.6978C22.7058 31.3896 22.6623 29.0597 22.6405 26.7516C22.6187 25.7717 23.0107 25.3144 24.0559 25.3362C27.5617 25.3797 31.0892 25.3797 34.595 25.3362C35.6402 25.3144 35.9886 25.7281 35.9886 26.7516C35.945 28.9944 35.9886 31.2372 35.9886 33.48C35.9886 34.6994 35.7708 34.8954 34.5079 34.9172C32.7223 34.9172 30.9586 34.9172 29.173 34.9172C29.173 34.8954 29.173 34.8954 29.173 34.8736Z" fill="#FF6001"/>
<path d="M190.831 37.9438C191.658 37.9438 192.486 37.9656 193.335 37.9438C194.097 37.9221 194.358 38.2487 194.337 38.989C194.293 40.1431 194.293 41.2972 194.337 42.4513C194.358 43.1698 194.01 43.4311 193.357 43.4311C191.658 43.4311 189.96 43.4094 188.261 43.3876C187.586 43.3876 187.282 43.0827 187.303 42.3859C187.325 41.2319 187.347 40.0778 187.303 38.9237C187.282 38.1398 187.63 37.9003 188.349 37.9221C189.176 37.9656 190.003 37.9438 190.831 37.9438Z" fill="#FF6001"/>
<path d="M179.16 6.54427C178.332 6.54427 177.505 6.52249 176.655 6.54427C176.002 6.56604 175.741 6.26119 175.741 5.62972C175.763 4.43209 175.763 3.23446 175.741 2.05861C175.741 1.29649 176.111 1.03519 176.83 1.03519C178.463 1.05696 180.096 1.05696 181.707 1.03519C182.36 1.03519 182.622 1.31826 182.622 1.94974C182.622 3.16914 182.6 4.41032 182.644 5.62972C182.665 6.34829 182.317 6.58782 181.642 6.56604C180.814 6.52249 179.987 6.54427 179.16 6.54427Z" fill="#FF6001"/>
<path d="M159.736 37.9441C160.564 37.9441 161.413 37.9658 162.24 37.9441C162.894 37.9223 163.242 38.1618 163.22 38.9022C163.177 40.0562 163.177 41.2103 163.22 42.3862C163.242 43.083 162.937 43.4096 162.262 43.4096C160.52 43.4096 158.778 43.4531 157.036 43.366C156.731 43.3443 156.23 42.8434 156.209 42.5386C156.121 41.3192 156.187 40.078 156.165 38.8586C156.143 38.1836 156.492 37.9658 157.101 37.9658C157.994 37.9441 158.865 37.9441 159.736 37.9441Z" fill="#FF6001"/>
<path d="M149.894 37.9439C150.721 37.9439 151.549 37.9656 152.398 37.9439C152.986 37.9221 153.247 38.2052 153.225 38.7931C153.204 40.0125 153.204 41.2537 153.225 42.4731C153.225 43.1263 152.942 43.3876 152.311 43.3876C150.612 43.3876 148.914 43.4094 147.215 43.4312C146.649 43.4312 146.344 43.2134 146.344 42.5819C146.366 41.319 146.344 40.056 146.344 38.7931C146.344 38.1181 146.693 37.9221 147.303 37.9221C148.152 37.9439 149.023 37.9439 149.894 37.9439Z" fill="#FF6001"/>
<path d="M140.095 37.9439C143.47 37.9439 143.47 37.9439 143.448 41.2754C143.427 43.7142 143.644 43.4094 141.271 43.3876C140.008 43.3876 138.745 43.3876 137.46 43.3876C136.829 43.3876 136.524 43.1481 136.546 42.4948C136.568 41.2754 136.568 40.0343 136.546 38.8149C136.524 38.1398 136.851 37.9221 137.482 37.9221C138.375 37.9439 139.246 37.9439 140.095 37.9439Z" fill="#FF6001"/>
</svg>
