<svg width="86" height="90" viewBox="0 0 86 90" fill="none" xmlns="http://www.w3.org/2000/svg">
<path d="M82.2938 51.2705C80.9047 49.3604 80.1568 47.0619 80.1568 44.7032C80.1568 42.3444 80.9047 40.046 82.2938 38.1358L85.1405 34.2178C85.4886 33.7393 85.7176 33.1854 85.8088 32.6016C85.9 32.0177 85.8507 31.4206 85.6649 30.8595C85.4773 30.3042 85.1632 29.7997 84.7474 29.3854C84.3315 28.9711 83.8251 28.6583 83.2677 28.4713L78.6605 26.9788C76.4036 26.2535 74.4363 24.8326 73.0427 22.9212C71.6491 21.0097 70.9012 18.7065 70.9069 16.3441V11.4932C70.9065 10.9043 70.7661 10.3238 70.4973 9.79923C70.2285 9.27469 69.8388 8.82098 69.3602 8.47522C68.8816 8.12947 68.3277 7.90148 67.7436 7.8099C67.1596 7.71833 66.5621 7.76577 66.0001 7.94835L61.3554 9.44093C59.1005 10.1678 56.6727 10.1659 54.419 9.43536C52.1653 8.70485 50.2012 7.28319 48.8074 5.37364L45.9607 1.45561C45.5972 1.00153 45.1357 0.634864 44.6104 0.382863C44.0852 0.130861 43.5097 0 42.9267 0C42.3437 0 41.7682 0.130861 41.2429 0.382863C40.7176 0.634864 40.2561 1.00153 39.8927 1.45561L37.0459 5.37364C35.6522 7.28319 33.688 8.70485 31.4343 9.43536C29.1806 10.1659 26.7528 10.1678 24.4979 9.44093L19.8532 7.94835C19.2912 7.76577 18.6937 7.71833 18.1097 7.8099C17.5257 7.90148 16.9717 8.12947 16.4931 8.47522C16.0145 8.82098 15.6249 9.27469 15.356 9.79923C15.0872 10.3238 14.9468 10.9043 14.9464 11.4932V16.3441C14.9521 18.7065 14.2042 21.0097 12.8106 22.9212C11.417 24.8326 9.44977 26.2535 7.19283 26.9788L2.58564 28.4713C2.02825 28.6583 1.52182 28.9711 1.10595 29.3854C0.690083 29.7997 0.376048 30.3042 0.188404 30.8595C0.00266116 31.4206 -0.0466555 32.0177 0.0445125 32.6016C0.13568 33.1854 0.364727 33.7393 0.7128 34.2178L3.55952 38.1358C4.94859 40.046 5.69649 42.3444 5.69649 44.7032C5.69649 47.0619 4.94859 49.3604 3.55952 51.2705L0.7128 55.1886C0.364727 55.667 0.13568 56.2209 0.0445125 56.8048C-0.0466555 57.3886 0.00266116 57.9857 0.188404 58.5469C0.376048 59.1021 0.690083 59.6066 1.10595 60.0209C1.52182 60.4352 2.02825 60.7481 2.58564 60.935L7.19283 62.4276C9.44977 63.1528 11.417 64.5737 12.8106 66.4852C14.2042 68.3966 14.9521 70.6998 14.9464 73.0622V77.9131C14.9468 78.5021 15.0872 79.0826 15.356 79.6071C15.6249 80.1317 16.0145 80.5854 16.4931 80.9311C16.9717 81.2769 17.5257 81.5049 18.1097 81.5964C18.6937 81.688 19.2912 81.6406 19.8532 81.458L24.4604 79.9654C26.7201 79.2263 29.1571 79.222 31.4194 79.9531C33.6817 80.6842 35.6521 82.1129 37.0459 84.0327L39.8927 87.9507C40.2424 88.4251 40.6992 88.8108 41.2263 89.0766C41.7534 89.3424 42.3359 89.4809 42.9267 89.4809C43.5174 89.4809 44.0999 89.3424 44.627 89.0766C45.1541 88.8108 45.611 88.4251 45.9607 87.9507L48.8074 84.0327C50.2035 82.1156 52.174 80.689 54.4355 79.9581C56.697 79.2273 59.1329 79.2298 61.3929 79.9654L66.0001 81.458C66.5621 81.6406 67.1596 81.688 67.7436 81.5964C68.3277 81.5049 68.8816 81.2769 69.3602 80.9311C69.8388 80.5854 70.2285 80.1317 70.4973 79.6071C70.7661 79.0826 70.9065 78.5021 70.9069 77.9131V73.0622C70.9012 70.6998 71.6491 68.3966 73.0427 66.4852C74.4363 64.5737 76.4036 63.1528 78.6605 62.4276L83.2677 60.935C83.8251 60.7481 84.3315 60.4352 84.7474 60.0209C85.1632 59.6066 85.4773 59.1021 85.6649 58.5469C85.8507 57.9857 85.9 57.3886 85.8088 56.8048C85.7176 56.2209 85.4886 55.667 85.1405 55.1886L82.2938 51.2705ZM60.5688 39.8784L41.8404 58.5357C41.138 59.2352 40.1854 59.6282 39.1922 59.6282C38.199 59.6282 37.2464 59.2352 36.544 58.5357L25.307 47.3413C24.9492 46.9971 24.6639 46.5853 24.4675 46.1301C24.2712 45.6748 24.1679 45.1852 24.1636 44.6897C24.1593 44.1943 24.254 43.7029 24.4424 43.2443C24.6307 42.7858 24.9088 42.3691 25.2605 42.0188C25.6122 41.6684 26.0304 41.3914 26.4908 41.2037C26.9511 41.0161 27.4443 40.9217 27.9417 40.926C28.439 40.9303 28.9305 41.0332 29.3875 41.2288C29.8445 41.4244 30.2578 41.7086 30.6034 42.065L39.181 50.6213L55.2612 34.6021C55.9676 33.9224 56.9138 33.5463 57.8959 33.5548C58.878 33.5633 59.8175 33.9557 60.512 34.6476C61.2064 35.3394 61.6004 36.2753 61.6089 37.2537C61.6174 38.2321 61.2399 39.1746 60.5576 39.8784H60.5688Z" fill="#522864"/>
</svg>
